<?xml version="1.0" encoding="iso-8859-1"?>
<!-- Generator: Adobe Illustrator 19.0.0, SVG Export Plug-In . SVG Version: 6.00 Build 0)  -->
<svg version="1.1" id="Layer_1" xmlns="http://www.w3.org/2000/svg" xmlns:xlink="http://www.w3.org/1999/xlink" x="0px" y="0px"
	 viewBox="0 0 512 512" style="enable-background:new 0 0 512 512;" xml:space="preserve">
<circle style="fill:#273B7A;" cx="256" cy="256" r="256"/>
<path style="fill:#121149;" d="M123.725,304.969l198.392,198.392c83.913-22.373,150.854-86.297,177.452-168.398L326.878,161.813
	l-75.078,63.116l-54.094-54.367L123.725,304.969z"/>
<path style="fill:#FF6262;" d="M74.357,210.308c0-47.109,30.484-68.086,68.086-68.086s68.086,30.484,68.086,68.086
	c0-37.604,30.484-68.086,68.086-68.086s68.086,29.229,68.086,68.086c0,95.251-136.171,147.52-136.171,147.52
	S74.357,306.247,74.357,210.308z"/>
<path style="fill:#FF314F;" d="M210.529,210.308c0-37.604,30.484-68.086,68.086-68.086s68.086,29.229,68.086,68.086
	c0,95.251-136.171,147.52-136.171,147.52L210.529,210.308L210.529,210.308z"/>
<path style="fill:#FFAD9E;" d="M230.447,286.661c0-30.018,19.423-43.386,43.386-43.386c23.961,0,43.386,19.423,43.386,43.386
	c0-23.961,19.425-43.386,43.386-43.386s43.385,18.625,43.385,43.386c0,60.695-86.769,94.001-86.769,94.001
	S230.447,347.795,230.447,286.661z"/>
<path style="fill:#FF6262;" d="M317.216,286.661c0-23.961,19.425-43.386,43.386-43.386s43.386,18.625,43.386,43.386
	c0,60.695-86.769,94.001-86.769,94.001v-94.001H317.216z"/>
<g>
</g>
<g>
</g>
<g>
</g>
<g>
</g>
<g>
</g>
<g>
</g>
<g>
</g>
<g>
</g>
<g>
</g>
<g>
</g>
<g>
</g>
<g>
</g>
<g>
</g>
<g>
</g>
<g>
</g>
</svg>
